<svg id="wave" style="transform:rotate(0deg); transition: 0.3s" viewBox="0 0 1440 280" version="1.1" xmlns="http://www.w3.org/2000/svg"><defs><linearGradient id="sw-gradient-0" x1="0" x2="0" y1="1" y2="0"><stop stop-color="rgba(236, 117, 111, 1)" offset="0%"></stop><stop stop-color="rgba(226, 172, 82, 1)" offset="100%"></stop></linearGradient></defs><path style="transform:translate(0, 0px); opacity:1" fill="url(#sw-gradient-0)" d="M0,84L40,102.7C80,121,160,159,240,177.3C320,196,400,196,480,186.7C560,177,640,159,720,130.7C800,103,880,65,960,74.7C1040,84,1120,140,1200,135.3C1280,131,1360,65,1440,51.3C1520,37,1600,75,1680,107.3C1760,140,1840,168,1920,154C2000,140,2080,84,2160,88.7C2240,93,2320,159,2400,172.7C2480,187,2560,149,2640,149.3C2720,149,2800,187,2880,210C2960,233,3040,243,3120,228.7C3200,215,3280,177,3360,163.3C3440,149,3520,159,3600,144.7C3680,131,3760,93,3840,74.7C3920,56,4000,56,4080,46.7C4160,37,4240,19,4320,46.7C4400,75,4480,149,4560,182C4640,215,4720,205,4800,205.3C4880,205,4960,215,5040,219.3C5120,224,5200,224,5280,191.3C5360,159,5440,93,5520,93.3C5600,93,5680,159,5720,191.3L5760,224L5760,280L5720,280C5680,280,5600,280,5520,280C5440,280,5360,280,5280,280C5200,280,5120,280,5040,280C4960,280,4880,280,4800,280C4720,280,4640,280,4560,280C4480,280,4400,280,4320,280C4240,280,4160,280,4080,280C4000,280,3920,280,3840,280C3760,280,3680,280,3600,280C3520,280,3440,280,3360,280C3280,280,3200,280,3120,280C3040,280,2960,280,2880,280C2800,280,2720,280,2640,280C2560,280,2480,280,2400,280C2320,280,2240,280,2160,280C2080,280,2000,280,1920,280C1840,280,1760,280,1680,280C1600,280,1520,280,1440,280C1360,280,1280,280,1200,280C1120,280,1040,280,960,280C880,280,800,280,720,280C640,280,560,280,480,280C400,280,320,280,240,280C160,280,80,280,40,280L0,280Z"></path></svg>